<?xml version="1.0" standalone="no"?>
<!DOCTYPE svg PUBLIC "-//W3C//DTD SVG 20010904//EN"
 "http://www.w3.org/TR/2001/REC-SVG-20010904/DTD/svg10.dtd">
<svg version="1.0" xmlns="http://www.w3.org/2000/svg"
 width="1907.000000pt" height="2268.000000pt" viewBox="0 0 1907.000000 2268.000000"
 preserveAspectRatio="xMidYMid meet">

<g transform="translate(0.000000,2268.000000) scale(0.100000,-0.100000)"
fill="#000000" stroke="none">
<path d="M9090 17583 c-1551 -88 -2973 -753 -4027 -1882 -799 -855 -1318
-1903 -1518 -3063 -21 -122 -43 -291 -51 -388 -3 -47 -8 -87 -9 -90 -2 -3 -7
-82 -12 -175 -27 -566 14 -1080 127 -1600 420 -1920 1771 -3514 3605 -4250
953 -383 1987 -507 3030 -364 1287 176 2504 797 3428 1749 706 727 1206 1607
1477 2595 84 310 144 654 185 1075 3 30 8 192 11 360 7 344 -8 613 -52 925
-156 1110 -609 2123 -1340 3000 -131 157 -445 479 -606 621 -997 880 -2237
1397 -3558 1483 -128 8 -572 11 -690 4z m508 -695 c151 -176 275 -318 277
-316 1 2 6 64 10 138 4 74 10 184 14 245 10 144 7 156 -52 175 -33 11 -47 20
-47 33 0 17 8 18 128 12 159 -8 172 -10 172 -35 0 -16 -7 -20 -33 -20 -62 0
-65 -10 -82 -285 -3 -49 -8 -117 -10 -150 -2 -33 -7 -116 -11 -185 -6 -110 -9
-156 -13 -182 -1 -5 -14 -8 -29 -8 -25 0 -63 40 -302 315 -150 174 -274 314
-276 312 -7 -7 -30 -365 -30 -455 1 -72 12 -86 77 -97 30 -5 39 -11 39 -27 0
-19 -5 -20 -117 -14 -181 10 -203 14 -203 37 0 15 7 19 33 19 62 0 73 22 81
165 3 61 8 137 11 170 3 33 9 150 15 260 6 110 13 205 15 211 2 6 16 9 32 6
22 -3 83 -68 301 -324z m-838 288 c0 -2 2 -11 5 -18 4 -10 -6 -18 -34 -26 -21
-7 -41 -19 -44 -27 -3 -7 14 -114 39 -236 62 -309 61 -392 -9 -496 -33 -50
-111 -104 -177 -124 -61 -18 -195 -23 -245 -9 -92 26 -157 95 -197 208 -10 29
-39 153 -63 275 -25 122 -51 228 -59 235 -7 8 -31 15 -52 15 -27 2 -40 7 -42
19 -3 18 -1 18 226 62 l122 23 0 -23 c0 -17 -6 -24 -19 -24 -10 0 -29 -8 -41
-18 l-22 -18 41 -210 c67 -334 91 -398 172 -444 93 -52 237 -10 285 83 27 51
19 151 -30 397 -24 124 -48 233 -51 243 -8 19 -41 30 -76 25 -18 -2 -25 2 -27
18 -3 18 9 22 130 46 136 27 168 31 168 24z m1932 -122 c191 -44 177 -39 171
-62 -4 -16 -11 -19 -49 -14 -39 4 -44 2 -52 -19 -5 -13 -44 -176 -88 -363
l-78 -339 23 -18 c12 -10 38 -21 57 -25 35 -6 46 -30 20 -40 -15 -6 -352 68
-363 79 -3 4 -3 13 1 22 4 12 14 14 44 9 27 -4 41 -2 50 9 21 25 172 699 161
719 -5 9 -24 22 -43 29 -25 9 -32 17 -28 31 2 10 8 18 13 18 4 0 77 -16 161
-36z m625 -185 c76 -33 142 -64 146 -68 4 -4 5 -15 1 -24 -4 -12 -11 -14 -30
-7 -41 16 -43 5 -59 -380 -3 -74 -8 -155 -11 -180 l-5 -45 210 210 c116 115
211 218 211 227 0 10 -9 22 -20 28 -16 9 -18 15 -10 30 9 17 18 15 135 -38 96
-42 125 -60 125 -74 0 -16 -5 -18 -35 -12 -72 13 -48 31 -504 -388 -118 -109
-220 -198 -227 -198 -7 0 -16 5 -19 10 -6 10 -7 213 -2 709 l2 173 -34 28
c-22 19 -32 34 -28 44 4 9 9 16 11 16 3 0 67 -27 143 -61z m-4327 -238 c8 -17
5 -23 -20 -38 -17 -9 -32 -25 -35 -34 -5 -15 61 -150 271 -553 28 -54 58 -103
67 -108 12 -6 31 -3 61 11 39 17 46 17 57 5 7 -9 8 -18 3 -23 -5 -5 -81 -45
-169 -90 -144 -73 -161 -80 -172 -65 -10 14 -7 20 20 38 17 12 33 29 35 38 4
23 -316 648 -336 655 -8 4 -32 2 -54 -4 -21 -6 -39 -6 -39 -2 -1 5 -2 14 -3
20 -1 7 283 167 301 169 1 0 7 -9 13 -19z m5485 -372 c124 -82 225 -155 225
-160 0 -18 -85 -139 -98 -139 -18 0 -27 29 -13 43 6 6 11 25 11 43 0 29 -8 37
-82 88 -65 45 -85 54 -94 44 -20 -22 -144 -210 -144 -220 0 -11 148 -108 165
-108 6 0 20 9 30 20 20 22 40 26 50 10 6 -10 -112 -200 -124 -200 -20 0 -28
23 -18 49 6 16 7 35 4 44 -3 9 -41 39 -83 67 l-77 50 -94 -141 c-52 -78 -93
-143 -91 -145 24 -24 178 -114 195 -114 12 0 37 13 55 29 26 22 38 27 51 20
15 -9 11 -18 -35 -87 -28 -42 -53 -79 -55 -81 -5 -6 -473 309 -473 318 0 23
24 29 57 13 25 -12 39 -13 51 -6 23 15 402 579 402 600 0 9 -15 31 -33 49 -25
25 -31 38 -25 49 5 9 11 16 14 16 2 0 106 -68 229 -151z m-6127 -60 c49 -64
50 -68 33 -83 -17 -16 -19 -15 -34 8 -21 32 -50 40 -80 24 -62 -34 -146 -104
-141 -117 2 -8 39 -61 81 -117 l76 -103 45 32 c25 18 62 48 84 67 38 35 38 35
23 64 -14 26 -14 32 -1 44 12 12 23 2 84 -79 62 -82 69 -96 57 -108 -13 -13
-18 -12 -38 7 -13 12 -30 22 -38 22 -8 0 -49 -25 -91 -56 l-76 -57 100 -133
c55 -74 103 -134 106 -134 8 0 137 98 156 119 23 25 23 71 1 105 -15 23 -15
25 3 35 18 9 27 1 77 -65 47 -63 55 -78 44 -89 -24 -22 -422 -317 -434 -321
-6 -3 -17 2 -24 9 -9 12 -6 21 18 45 20 19 28 36 24 48 -3 11 -98 143 -212
294 -222 296 -229 303 -287 265 -27 -18 -54 -14 -54 7 1 13 429 338 441 335 4
-1 29 -32 57 -68z m3417 -233 c22 -3 85 -10 140 -16 540 -56 1153 -258 1643
-540 1120 -643 1884 -1726 2116 -3000 49 -270 60 -411 60 -760 0 -329 -7 -421
-50 -700 -65 -411 -203 -839 -398 -1230 -342 -686 -865 -1273 -1511 -1696
-610 -399 -1353 -647 -2070 -691 -290 -18 -673 -2 -940 38 -1127 169 -2144
782 -2831 1704 -828 1113 -1068 2569 -643 3900 344 1079 1125 2001 2134 2521
519 268 1098 432 1670 473 120 9 604 6 680 -3z m3463 -290 c164 -166 194 -212
194 -296 0 -61 -32 -123 -83 -160 -54 -39 -98 -52 -179 -54 l-69 -1 -5 -35
c-14 -92 -28 -253 -28 -328 0 -69 4 -90 25 -127 22 -38 23 -46 11 -56 -12 -10
-26 -2 -75 47 -87 86 -102 123 -97 237 3 50 13 141 22 201 l18 109 -34 34 -34
34 -95 -96 c-52 -53 -96 -105 -97 -117 -2 -13 9 -33 29 -54 27 -28 30 -36 19
-48 -11 -14 -31 2 -151 116 -133 125 -139 132 -122 150 16 18 17 18 43 -7 14
-14 33 -25 42 -25 18 0 509 491 520 520 4 12 -1 31 -17 53 -17 26 -20 38 -12
46 6 6 14 11 17 11 4 0 75 -69 158 -154z m-7610 -119 c61 -61 62 -64 44 -80
-17 -16 -21 -16 -32 -2 -22 26 -83 39 -123 26 -41 -14 -93 -69 -103 -107 -10
-38 19 -91 61 -111 33 -16 44 -15 183 1 205 25 278 10 356 -70 51 -52 70 -99
70 -169 0 -76 -27 -138 -90 -205 -55 -59 -129 -110 -158 -110 -20 0 -166 133
-166 150 0 4 6 12 13 18 10 9 22 5 48 -12 84 -57 161 -49 222 24 56 66 41 152
-33 192 -37 20 -52 20 -295 2 -95 -7 -145 4 -211 49 -147 99 -116 299 66 433
25 19 54 34 65 34 12 0 47 -26 83 -63z m-689 -616 c12 -8 12 -14 2 -39 -25
-61 -45 -46 501 -381 86 -53 157 -100 157 -106 1 -25 -32 -48 -91 -61 -138
-33 -598 -136 -670 -151 -43 -9 -78 -19 -78 -22 1 -15 423 -263 448 -263 18 0
36 11 57 36 30 36 49 44 59 27 5 -8 -94 -179 -147 -254 -17 -25 -22 -27 -34
-15 -12 12 -11 20 2 51 15 36 14 37 -12 65 -16 16 -116 83 -223 149 -454 278
-431 263 -420 283 6 10 14 21 19 25 11 6 243 59 576 130 121 26 228 51 238 54
26 10 -402 271 -443 271 -28 0 -51 -16 -68 -46 -10 -17 -45 -8 -40 11 4 17
142 245 148 245 3 0 11 -4 19 -9z m8956 -65 c28 -12 69 -44 93 -70 43 -46 102
-155 102 -188 0 -13 -137 -118 -154 -118 -3 0 -10 9 -16 19 -8 16 -4 25 19 49
44 43 50 96 19 151 -33 61 -84 87 -134 71 -61 -20 -76 -58 -89 -225 -17 -206
-63 -294 -184 -348 -61 -27 -153 -20 -216 17 -81 48 -175 190 -175 266 0 33 6
39 87 94 81 56 87 58 100 41 12 -17 9 -23 -21 -55 -18 -19 -39 -45 -45 -57
-29 -57 3 -158 62 -193 58 -36 121 -22 169 35 22 26 36 89 43 200 9 115 35
200 80 252 70 82 165 104 260 59z m511 -803 c67 -141 71 -154 54 -163 -15 -8
-22 -4 -39 25 -11 19 -27 35 -35 35 -8 0 -159 -71 -336 -157 -349 -171 -345
-168 -316 -238 17 -39 13 -58 -9 -53 -17 4 -178 326 -170 339 12 18 34 9 51
-21 10 -16 24 -32 32 -35 8 -3 160 66 338 154 344 170 353 176 324 230 -6 12
-8 26 -5 32 18 28 43 -6 111 -148z m-9836 -412 c185 -31 339 -158 386 -318 65
-223 -62 -504 -262 -582 -235 -92 -516 34 -599 269 -65 185 37 479 202 581 45
28 139 58 183 58 19 1 60 -3 90 -8z m10169 -447 c56 -187 101 -345 101 -350 0
-13 -147 -77 -159 -69 -19 11 -12 29 24 58 43 34 44 59 7 173 l-27 81 -335
-99 c-206 -61 -340 -106 -348 -116 -8 -10 -11 -29 -8 -47 12 -65 12 -70 -8
-70 -16 0 -27 28 -71 175 -29 96 -50 178 -48 183 11 20 40 4 52 -28 10 -28 17
-35 40 -35 23 0 670 186 679 195 2 2 -11 48 -28 104 -33 108 -44 121 -103 121
-23 0 -37 6 -41 16 -4 9 -4 19 -2 22 4 4 168 30 173 28 1 -1 47 -155 102 -342z
m-10777 -643 c9 -52 32 -79 143 -166 125 -98 241 -173 282 -184 21 -5 70 -12
108 -16 39 -3 93 -8 122 -11 62 -7 87 12 98 75 7 42 11 46 32 33 9 -6 8 -49
-4 -190 -16 -171 -18 -183 -36 -180 -14 2 -20 12 -22 36 -2 19 -8 39 -14 45
-15 15 -184 35 -269 32 -57 -1 -79 -9 -248 -93 -218 -108 -250 -130 -266 -183
-8 -28 -17 -39 -31 -39 -18 0 -19 5 -13 68 4 37 9 96 12 132 6 73 14 123 18
127 8 9 35 -11 39 -28 5 -19 7 -19 44 -4 91 37 313 140 313 145 0 8 -225 162
-267 184 -43 22 -63 20 -63 -4 0 -20 -34 -29 -43 -12 -4 6 5 114 17 217 3 22
5 46 5 53 1 8 9 12 18 10 12 -2 20 -17 25 -47z m10945 -81 c18 -176 17 -200
-7 -200 -11 0 -20 7 -20 15 0 34 -22 22 -233 -128 -54 -38 -95 -73 -90 -77 4
-5 73 -35 151 -69 152 -64 202 -75 202 -42 0 10 9 21 20 24 22 6 24 -3 35
-123 3 -36 9 -86 12 -112 5 -43 3 -48 -15 -48 -13 0 -22 9 -26 26 -17 68 -61
98 -307 210 -93 43 -155 65 -183 66 -34 1 -214 -12 -238 -18 -5 -1 -15 -2 -23
-3 -30 -2 -55 -40 -55 -80 0 -41 -16 -63 -30 -41 -4 6 -13 73 -19 148 -6 76
-14 156 -17 180 -6 37 -4 42 14 42 14 0 22 -9 27 -29 12 -57 23 -59 209 -42
123 12 140 21 341 174 159 122 195 162 195 216 0 28 3 32 22 29 21 -3 24 -11
35 -118z m-10238 -2108 c14 -10 37 -34 49 -53 20 -28 23 -44 20 -92 -7 -94
-61 -148 -155 -155 -49 -3 -64 0 -93 20 -74 50 -103 145 -66 216 48 92 166
123 245 64z m9753 -29 c28 -25 58 -91 58 -131 0 -79 -66 -156 -144 -167 -114
-17 -207 75 -193 191 5 47 42 105 80 126 57 31 154 22 199 -19z m-863 -1668
l294 -245 26 35 c14 19 29 34 32 35 4 0 26 -18 50 -39 41 -36 43 -40 28 -57
-9 -11 -138 -167 -288 -347 l-272 -329 -42 35 c-23 19 -42 40 -42 46 0 6 22
38 49 72 27 33 47 61 45 62 -2 2 -44 37 -94 79 -99 82 -124 98 -154 98 -33 0
-25 20 32 83 l52 58 127 -105 c69 -58 128 -106 131 -106 3 0 15 13 26 28 l20
29 -130 107 -129 108 46 54 c26 30 49 54 53 54 4 0 63 -47 133 -105 l126 -104
37 44 36 44 -233 193 c-128 106 -241 199 -250 206 -14 11 -39 -15 -208 -218
l-192 -231 -41 34 c-23 19 -42 40 -42 46 0 11 466 580 475 580 3 0 137 -110
299 -244z m-7952 180 c94 -47 155 -136 171 -253 8 -54 14 -66 72 -131 34 -39
65 -71 68 -71 16 0 52 46 52 66 0 13 4 25 9 28 7 5 68 -59 119 -125 11 -14
-21 -45 -244 -240 -140 -123 -259 -225 -264 -227 -4 -2 -29 23 -56 54 l-48 56
44 42 c25 22 67 60 94 83 l48 42 -65 74 c-58 64 -70 73 -104 75 -125 8 -229
94 -267 222 -20 67 -20 93 0 160 45 151 218 219 371 145z m-433 -402 c22 -26
49 -57 60 -70 20 -26 25 -19 -97 -124 l-28 -24 191 -220 192 -220 -44 -37
c-24 -21 -47 -36 -51 -35 -5 1 -116 126 -247 276 l-238 274 86 74 c103 89 112
100 112 130 0 35 18 28 64 -24z m6684 -962 l55 -120 69 35 68 34 25 -50 25
-50 -65 -32 c-36 -18 -65 -36 -65 -40 0 -5 14 -38 30 -75 17 -36 30 -70 30
-75 0 -13 -133 -73 -138 -62 -2 5 -51 106 -110 224 -76 152 -114 218 -129 225
-13 5 -23 15 -23 21 0 10 140 81 163 83 5 1 34 -53 65 -118z m-4742 43 c54
-25 101 -48 103 -50 12 -11 -94 -161 -164 -231 l-82 -82 18 -28 c27 -43 101
-233 96 -246 -3 -7 -32 -27 -65 -45 l-61 -33 -6 38 c-7 43 -62 222 -74 241 -6
9 -25 4 -82 -22 -41 -19 -100 -41 -131 -49 l-57 -15 -17 45 c-19 48 -16 53 36
73 150 57 320 200 376 318 18 39 20 56 10 100 -4 17 -6 32 -3 32 2 0 49 -21
103 -46z m4474 -124 c13 -27 22 -52 19 -54 -2 -2 -24 -13 -48 -26 l-43 -21 41
-21 c141 -70 162 -254 42 -377 -115 -118 -314 -121 -409 -6 -47 57 -64 141
-42 199 11 30 10 31 -37 11 -19 -8 -39 -15 -43 -15 -4 0 -16 21 -26 47 -11 27
-20 50 -22 53 -1 3 43 28 98 55 55 27 99 54 97 60 -2 5 -16 16 -30 23 -15 7
-27 17 -27 21 0 9 149 81 167 81 6 0 16 -13 23 -30 7 -16 16 -30 20 -30 5 0
46 18 91 40 46 22 88 40 94 40 6 0 22 -22 35 -50z m-4063 -47 c2 -5 -71 -170
-163 -368 -91 -198 -179 -391 -197 -430 -17 -38 -32 -71 -32 -73 -4 -6 -125
51 -125 59 0 5 42 100 94 211 129 280 136 296 136 306 0 5 -31 23 -70 40 l-69
32 20 47 c11 27 24 52 28 56 4 4 38 -6 75 -23 37 -16 70 -30 72 -30 2 0 22 39
45 88 30 64 39 95 35 119 -2 17 -2 33 0 36 7 7 148 -59 151 -70z m134 -54 c35
-17 66 -33 68 -34 3 -3 -26 -66 -177 -395 -17 -36 -72 -155 -122 -265 -50
-110 -95 -204 -99 -208 -6 -6 -141 49 -141 58 0 8 382 844 397 868 6 10 1 11
74 -24z m4479 -406 c36 -74 66 -142 68 -149 3 -13 -124 -78 -137 -69 -4 2 -25
42 -45 89 -21 48 -41 86 -45 86 -3 0 -62 -27 -129 -60 -68 -33 -125 -60 -127
-60 -3 0 -67 -31 -144 -69 -190 -94 -175 -92 -206 -31 -15 29 -25 54 -22 56 2
2 158 78 347 169 188 90 345 167 348 170 16 16 33 -8 92 -132z m-2512 -53 c2
-69 6 -128 10 -132 4 -4 17 -5 30 -2 21 6 22 10 22 135 l0 129 80 0 80 0 0
-485 0 -485 -80 0 -80 0 0 290 0 290 -30 0 -30 0 -2 -287 -3 -288 -72 -3 -73
-3 0 95 0 96 -262 2 -263 3 -2 349 c-2 307 -4 351 -19 367 -32 35 -10 39 209
36 l212 -2 3 -62 3 -63 -126 0 -125 0 0 -252 0 -253 183 2 182 1 0 300 c0 272
-2 302 -17 319 -10 11 -18 23 -18 27 0 4 42 5 93 4 l92 -3 3 -125z"/>
<path d="M9305 15204 c-361 -263 -835 -489 -1337 -638 -353 -105 -805 -191
-1158 -221 -41 -4 -86 -9 -100 -11 -14 -2 -118 -7 -232 -10 l-208 -7 0 -1146
c0 -1025 5 -1319 25 -1556 7 -81 33 -296 41 -341 l6 -30 101 18 c1432 260
3037 326 4527 187 430 -40 783 -86 1237 -161 139 -23 255 -40 257 -37 4 4 25
162 47 354 8 68 13 512 16 1406 l4 1306 -193 6 c-663 23 -1347 161 -1933 392
-287 112 -654 310 -884 474 -62 45 -116 81 -119 81 -4 -1 -47 -30 -97 -66z
m331 -889 c675 -129 1125 -796 988 -1463 -123 -604 -669 -1029 -1279 -998
-179 9 -313 42 -474 117 -308 143 -553 424 -655 747 -76 241 -76 513 0 754 34
107 119 274 186 363 203 269 519 453 849 495 97 12 283 5 385 -15z m1994 -624
c0 -5 -7 -25 -15 -45 -9 -20 -16 -59 -17 -87 -1 -63 19 -89 162 -214 110 -96
140 -134 140 -176 0 -42 -55 -139 -120 -211 -33 -37 -57 -68 -53 -71 5 -2 26
-3 48 -2 22 1 48 -2 57 -6 15 -8 15 -14 -4 -72 -11 -34 -25 -68 -31 -74 -7
-10 -69 -13 -247 -13 -178 0 -240 3 -247 13 -6 6 -19 40 -30 75 -20 61 -20 63
-2 73 10 5 46 9 80 8 100 -3 101 34 1 126 -158 145 -162 150 -162 186 0 19 10
54 23 77 25 47 103 142 116 142 5 0 9 -21 9 -46 2 -60 33 -106 109 -159 84
-59 142 -116 147 -146 5 -30 -23 -98 -60 -146 -22 -29 -23 -33 -7 -34 10 0 28
-2 40 -5 15 -3 28 5 43 25 34 49 60 114 60 153 0 44 -41 95 -124 155 -201 143
-206 217 -31 390 87 86 115 107 115 84z m-4464 -485 l25 -28 -2 -285 c-2 -262
-3 -284 -20 -293 -28 -15 -294 -13 -307 3 -7 8 -11 120 -11 314 -1 277 1 303
17 313 10 6 68 9 145 8 128 -3 129 -3 153 -32z m411 27 c10 -4 13 -76 13 -318
0 -302 -1 -313 -20 -318 -16 -4 -256 -3 -297 2 -10 1 -13 66 -13 290 0 159 3
297 6 306 13 32 64 44 184 43 63 0 120 -3 127 -5z m-795 -400 l3 -298 182 0
183 0 11 -27 c23 -56 107 -52 128 5 7 18 20 20 177 22 93 2 175 3 182 4 9 1
12 67 12 297 l0 295 43 -3 42 -3 0 -330 0 -330 -193 -3 -194 -2 -25 -30 c-51
-62 -147 -64 -212 -5 l-38 35 -189 2 -189 3 -3 320 c-1 176 0 325 3 332 2 7
20 13 40 13 l35 0 2 -297z m4886 -169 c27 -8 27 -20 7 -146 -8 -51 -26 -162
-40 -246 -13 -84 -27 -157 -30 -162 -3 -6 -26 -10 -50 -10 -35 0 -47 5 -58 23
-8 12 -31 136 -52 275 -34 217 -37 255 -24 263 16 10 211 12 247 3z"/>
<path d="M9325 13723 c-153 -24 -263 -79 -370 -187 -126 -127 -185 -267 -185
-442 -1 -403 369 -702 765 -619 90 19 216 81 283 140 97 86 174 216 203 342
16 72 13 219 -6 293 -69 266 -303 458 -575 473 -47 3 -98 3 -115 0z"/>
<path d="M8940 11330 c-632 -18 -1264 -71 -1895 -161 -241 -34 -583 -88 -651
-104 l-22 -5 24 -102 c168 -711 494 -1365 956 -1913 5 -5 425 407 1028 1010
l1020 1020 1021 -1020 1020 -1020 35 40 c63 71 209 267 292 390 225 337 405
715 540 1135 71 222 127 450 113 460 -19 11 -553 97 -841 134 -893 116 -1746
160 -2640 136z"/>
<path d="M8637 9302 c-422 -422 -767 -770 -767 -774 0 -8 220 -186 340 -275
296 -218 686 -451 1045 -624 l149 -73 243 123 c280 142 453 241 678 389 250
163 611 440 603 461 -2 5 -345 353 -764 774 l-760 766 -767 -767z m610 -440
c61 -33 56 -133 -9 -180 -16 -12 -14 -16 27 -56 41 -39 45 -47 45 -91 0 -93
-64 -148 -170 -148 -101 0 -160 47 -160 128 0 47 23 90 60 112 36 21 37 26 7
46 -13 9 -30 29 -37 46 -39 95 58 182 180 161 19 -4 45 -12 57 -18z m389 13
c82 -16 105 -118 40 -179 l-34 -32 33 -23 c119 -81 60 -243 -92 -255 -170 -13
-245 140 -119 240 l34 28 -25 19 c-53 42 -60 124 -15 170 21 21 106 48 132 42
8 -2 29 -6 46 -10z m-806 -215 c0 -233 -1 -227 47 -234 10 -2 19 -10 21 -19 3
-15 -10 -17 -118 -17 -110 0 -121 2 -118 18 2 10 14 18 33 20 36 5 42 13 39
55 -1 17 -3 90 -3 161 l-1 128 -22 -7 c-36 -11 -53 -11 -57 0 -5 11 146 115
167 115 9 0 12 -51 12 -220z m1270 176 c0 -23 -7 -51 -15 -62 -14 -19 -15 -18
-21 4 -6 21 -11 23 -78 20 -67 -3 -71 -4 -74 -28 -2 -22 3 -27 56 -43 140 -44
186 -177 96 -277 -49 -54 -145 -81 -211 -59 -32 10 -33 12 -33 62 0 78 24 105
36 41 7 -37 12 -44 41 -55 37 -14 90 6 108 41 20 39 19 79 -5 117 -21 35 -45
50 -105 68 -45 14 -45 15 -33 129 4 38 12 72 19 76 6 4 58 8 115 8 l104 0 0
-42z"/>
<path d="M9112 8824 c-32 -22 -30 -76 4 -103 40 -31 63 -27 80 15 30 73 -24
130 -84 88z"/>
<path d="M9107 8607 c-30 -21 -47 -87 -33 -122 33 -81 147 -59 146 29 -1 35
-17 61 -57 88 -33 21 -34 21 -56 5z"/>
<path d="M9532 8824 c-35 -24 -29 -66 15 -104 l37 -33 23 27 c28 33 30 79 3
106 -24 24 -48 25 -78 4z"/>
<path d="M9521 8596 c-12 -13 -25 -42 -28 -65 -5 -35 -2 -44 25 -71 37 -36 62
-38 98 -6 21 18 28 32 28 61 0 32 -6 44 -39 72 -46 39 -55 40 -84 9z"/>
<path d="M13070 15465 l-125 -126 52 -49 c59 -57 89 -63 151 -31 94 48 156
156 133 233 -13 41 -56 98 -75 98 -6 0 -67 -56 -136 -125z"/>
<path d="M4344 13470 c-196 -63 -269 -302 -134 -437 77 -77 211 -127 345 -127
78 0 98 3 153 28 107 49 182 157 182 261 0 53 -39 133 -83 172 -77 67 -238
123 -352 122 -27 0 -77 -9 -111 -19z"/>
<path d="M5424 8741 c-100 -61 -108 -186 -15 -248 69 -47 167 -15 209 67 26
53 28 80 5 127 -32 69 -131 96 -199 54z"/>
<path d="M5688 8403 l-27 -28 47 -52 47 -53 28 25 28 25 -19 28 c-11 15 -33
39 -49 55 l-29 27 -26 -27z"/>
<path d="M11341 7199 c-48 -21 -71 -61 -71 -125 0 -40 5 -51 38 -85 64 -64
137 -65 191 -3 27 30 31 43 31 89 0 46 -5 59 -31 89 -46 53 -95 64 -158 35z"/>
</g>
</svg>
